HIERARCHY
ROOT Hips
{
	OFFSET 0.000000 0.000000 0.000000
	CHANNELS 6 Xposition Yposition Zposition Zrotation Yrotation Xrotation 
	JOINT LHipJoint
	{
		OFFSET 0.000000 0.000000 0.000000
		CHANNELS 3 Zrotation Yrotation Xrotation
		JOINT LeftUpLeg
		{
			OFFSET 1.363060 -1.794630 0.839290
			CHANNELS 3 Zrotation Yrotation Xrotation
			JOINT LeftLeg
			{
				OFFSET 2.448110 -6.726130 0.000000
				CHANNELS 3 Zrotation Yrotation Xrotation
				JOINT LeftFoot
				{
					OFFSET 2.562200 -7.039590 0.000000
					CHANNELS 3 Zrotation Yrotation Xrotation
					JOINT LeftToeBase
					{
						OFFSET 0.157640 -0.433110 2.322550
						CHANNELS 3 Zrotation Yrotation Xrotation
						End Site
						{
							OFFSET 0.000000 0.000000 0.000000
						}
					}
				}
			}
		}
	}
	JOINT RHipJoint
	{
		OFFSET 0.000000 0.000000 0.000000
		CHANNELS 3 Zrotation Yrotation Xrotation
		JOINT RightUpLeg
		{
			OFFSET -1.305520 -1.794630 0.839290
			CHANNELS 3 Zrotation Yrotation Xrotation
			JOINT RightLeg
			{
				OFFSET -2.542530 -6.985550 0.000000
				CHANNELS 3 Zrotation Yrotation Xrotation
				JOINT RightFoot
				{
					OFFSET -2.568260 -7.056230 0.000000
					CHANNELS 3 Zrotation Yrotation Xrotation
					JOINT RightToeBase
					{
						OFFSET -0.164730 -0.452590 2.363150
						CHANNELS 3 Zrotation Yrotation Xrotation
						End Site
						{
							OFFSET 0.000000 0.000000 0.000000
						}
					}
				}
			}
		}
	}
	JOINT LowerBack
	{
		OFFSET 0.000000 0.000000 0.000000
		CHANNELS 3 Zrotation Yrotation Xrotation
		JOINT Spine
		{
			OFFSET 0.028270 2.035590 -0.193380
			CHANNELS 3 Zrotation Yrotation Xrotation
			JOINT Spine1
			{
				OFFSET 0.056720 2.048850 -0.042750
				CHANNELS 3 Zrotation Yrotation Xrotation
				JOINT Neck
				{
					OFFSET 0.000000 0.000000 0.000000
					CHANNELS 3 Zrotation Yrotation Xrotation
					JOINT Neck1
					{
						OFFSET -0.054170 1.746240 0.172020
						CHANNELS 3 Zrotation Yrotation Xrotation
						JOINT Head
						{
							OFFSET 0.104070 1.761360 -0.123970
							CHANNELS 3 Zrotation Yrotation Xrotation
							End Site
							{
								OFFSET 0.000000 0.000000 0.000000
							}
						}
					}
				}
				JOINT LeftShoulder
				{
					OFFSET 0.000000 0.000000 0.000000
					CHANNELS 3 Zrotation Yrotation Xrotation
					JOINT LeftArm
					{
						OFFSET 3.362410 1.200890 -0.311210
						CHANNELS 3 Zrotation Yrotation Xrotation
						JOINT LeftForeArm
						{
							OFFSET 4.983000 -0.000000 -0.000000
							CHANNELS 3 Zrotation Yrotation Xrotation
							JOINT LeftHand
							{
								OFFSET 3.483560 -0.000000 -0.000000
								CHANNELS 3 Zrotation Yrotation Xrotation
								JOINT LeftFingerBase
								{
									OFFSET 0.000000 0.000000 0.000000
									CHANNELS 3 Zrotation Yrotation Xrotation
									JOINT LeftHandIndex1
									{
										OFFSET 0.715260 -0.000000 -0.000000
										CHANNELS 3 Zrotation Yrotation Xrotation
										End Site
										{
											OFFSET 0.000000 0.000000 0.000000
										}
									}
								}
								JOINT LThumb
								{
									OFFSET 0.000000 0.000000 0.000000
									CHANNELS 3 Zrotation Yrotation Xrotation
									End Site
									{
										OFFSET 0.000000 0.000000 0.000000
									}
								}
							}
						}
					}
				}
				JOINT RightShoulder
				{
					OFFSET 0.000000 0.000000 0.000000
					CHANNELS 3 Zrotation Yrotation Xrotation
					JOINT RightArm
					{
						OFFSET -3.136600 1.374050 -0.404650
						CHANNELS 3 Zrotation Yrotation Xrotation
						JOINT RightForeArm
						{
							OFFSET -5.241900 -0.000000 -0.000000
							CHANNELS 3 Zrotation Yrotation Xrotation
							JOINT RightHand
							{
								OFFSET -3.444170 -0.000000 -0.000000
								CHANNELS 3 Zrotation Yrotation Xrotation
								JOINT RightFingerBase
								{
									OFFSET 0.000000 0.000000 0.000000
									CHANNELS 3 Zrotation Yrotation Xrotation
									JOINT RightHandIndex1
									{
										OFFSET -0.622530 -0.000000 -0.000000
										CHANNELS 3 Zrotation Yrotation Xrotation
										End Site
										{
											OFFSET 0.000000 0.000000 0.000000
										}
									}
								}
								JOINT RThumb
								{
									OFFSET 0.000000 0.000000 0.000000
									CHANNELS 3 Zrotation Yrotation Xrotation
									End Site
									{
										OFFSET 0.000000 0.000000 0.000000
									}
								}
							}
						}
					}
				}
			}
		}
	}
}
MOTION
Frames: 8
Frame Time: 0.033333
1.368723 16.676718 -3.641012 88.957606 -37.889076 -36.861283 -120.479830 -42.357853 77.401927 4.960144 18.196167 -62.986794 -50.813267 66.227251 -33.893982 -49.821308 19.394731 -10.348991 -0.671523 -0.173861 -92.438981 31.110695 -13.017349 -103.951021 -170.457012 -80.537682 138.739317 117.249941 -55.453320 -112.469173 -7.635242 -18.080443 1.605837 -1.689427 -0.169198 -38.570739 -84.847505 77.384615 3.304659 -165.047929 75.833442 -169.192542 -169.359393 73.464250 175.354758 -2.294483 25.233287 20.509606 10.784678 5.552879 -12.256829 0.549319 -0.496889 0.723349 80.881238 43.069784 -51.922533 -130.646797 66.020692 -167.972623 -68.941901 40.779368 -110.529434 -9.305134 -7.732046 -6.360625 19.038100 23.727560 17.648076 -0.629493 -0.572094 0.605750 0.602216 0.534049 -0.579834 120.520090 67.766474 140.297592 28.857127 29.689852 125.400632 -27.228454 -23.767553 103.666296 -39.912140 8.892502 -83.427617 58.704547 8.609752 -110.831683 -0.656121 0.553551 -0.578663 -0.463617 -0.606800 -0.581688 
1.273432 16.778227 -2.887594 88.275442 -38.898817 -35.602907 -121.887102 -43.655486 76.060052 8.178079 20.785208 -56.371373 -60.854802 67.981810 -40.216359 -55.906928 22.118340 -0.897167 0.141703 0.194165 -85.705048 30.481257 -12.711537 -104.892708 -163.384896 -77.598614 131.303499 118.402742 -51.220218 -105.309928 -13.333621 -15.352480 4.328169 -1.737013 -0.030931 -28.926166 -77.980785 77.080702 8.975680 -159.035065 76.468414 -162.946070 -163.306419 73.102435 179.806246 -8.454531 16.206749 21.467417 13.139984 3.867410 -13.394869 0.597880 -0.662854 0.463172 82.211564 43.565748 -51.252438 -141.308497 68.411467 -176.180098 -64.071879 33.235095 -109.218104 -15.641204 -6.282811 -0.995708 13.097153 25.074464 12.833033 -0.688553 -0.469982 0.559775 0.593498 0.546591 -0.512943 121.779395 66.334094 138.948445 29.918368 33.059417 128.354810 -21.850405 -21.943370 107.726895 -43.518162 1.262729 -82.723913 58.294091 12.806826 -110.971624 -0.640701 0.606780 -0.627125 -0.679685 -0.678867 -0.468133 
1.146430 16.894089 -2.206506 87.531012 -38.827048 -34.490576 -121.948703 -44.965141 75.209465 11.396994 25.409690 -51.475749 -75.657967 68.343566 -44.488669 -44.549159 28.724901 8.888633 1.501182 0.664351 -75.828597 30.176922 -11.706577 -104.866423 -167.005043 -77.454062 132.790088 119.688600 -48.327539 -101.569808 -15.472653 -14.486490 1.305735 -1.452420 0.020980 -23.355292 -67.951416 77.407869 18.512109 -157.815869 76.929408 -161.904838 -163.033820 73.978905 -179.682052 -13.396798 12.390317 21.065374 10.291615 -4.284199 -12.563751 0.676395 -0.446412 0.650585 80.218782 43.727038 -50.869585 -148.957951 68.395549 177.051631 -52.395658 20.220418 -102.347224 -17.032732 2.032805 5.566666 7.804975 22.883158 7.367766 -0.640429 -0.637772 0.693223 0.639314 0.579140 -0.730761 123.641523 65.784470 139.984872 31.786458 38.399259 132.258141 -18.327277 -19.193652 112.899220 -45.945159 0.055742 -89.078608 57.020431 5.753357 -101.141947 -0.674519 0.620649 -0.547284 -0.558808 -0.634657 -0.612486 
1.000030 17.005289 -1.601857 86.728471 -39.330296 -33.556983 -119.969601 -45.617516 71.656822 18.302906 28.851398 -44.876482 -95.032012 69.387799 -53.033550 -34.945846 35.767923 8.330420 2.939471 0.696701 -59.460567 29.348503 -11.079542 -103.948081 -175.706673 -76.699039 138.921577 120.035792 -47.365812 -98.983178 -19.026789 -12.848727 -3.519349 -0.929204 -0.013892 -18.302567 -60.616268 77.523948 25.941657 -153.435731 77.774331 -158.422603 -160.315667 74.584887 -178.572800 -15.755394 11.992289 20.944154 12.279247 -4.112071 -7.140193 0.578375 -0.709975 0.505487 80.606657 43.919575 -48.480696 -150.206320 69.228135 178.082590 -40.043492 6.114569 -100.137403 -18.283846 4.611800 4.018878 1.997929 22.173950 6.019190 -0.740906 -0.543656 0.619785 0.658894 0.565392 -0.606299 123.900956 63.200228 139.543496 33.447659 45.848354 135.046901 -18.654175 -17.455419 120.532403 -45.321293 -1.663691 -84.778777 60.099617 3.574547 -94.751299 -0.601156 0.650947 -0.646207 -0.758660 -0.651427 -0.543062 
0.861560 17.109755 -1.046405 86.557755 -39.702859 -32.502604 -118.663793 -45.446962 69.509139 25.686868 32.165256 -40.692455 -109.444647 69.986604 -58.090375 -17.477838 41.289194 9.099803 4.350726 0.278793 -40.388529 28.777653 -9.852560 -102.461090 164.717101 -78.321768 155.072845 117.171171 -47.400692 -98.413222 -19.506680 -12.795280 -7.124965 -0.545035 -0.004380 -15.574163 -56.446854 77.150763 31.372520 -151.058255 78.170900 -156.716276 -162.492081 76.174530 179.362147 -15.252052 14.712590 22.163009 9.206971 -2.788716 -6.280751 0.735606 -0.489012 0.662007 79.770643 45.141296 -45.633645 -147.316119 72.158006 -176.064904 -25.349031 -2.181799 -103.687108 -17.409029 10.284878 7.851429 0.855055 16.824716 1.456964 -0.734501 -0.595814 0.676034 0.597891 0.635720 -0.694854 125.529874 61.047905 141.970886 38.141750 52.451203 140.506526 -20.121037 -20.092600 124.863998 -48.615708 4.803150 -85.582488 53.561933 -2.218304 -77.846306 -0.728384 0.725088 -0.569061 -0.539656 -0.597409 -0.616595 
0.720368 17.207764 -0.509059 86.289673 -40.011939 -32.040258 -115.954177 -44.895277 66.856468 31.079220 34.739843 -38.209945 -117.078490 71.486113 -59.176435 -12.697352 43.998416 4.024147 4.439210 -0.385148 -22.663265 27.178106 -10.405111 -101.288017 149.193314 -77.074448 167.682330 112.918001 -49.337384 -96.337522 -17.451014 -13.633607 -7.614639 0.160032 -0.267219 -12.798574 -51.412503 76.625168 36.706659 -151.177704 79.298851 -156.359513 -166.174386 76.558247 175.313129 -16.912644 16.014647 24.201654 9.137664 -3.761254 -3.037671 0.630998 -0.632561 0.597777 78.183593 46.407897 -40.930329 -138.013174 74.951392 -164.547974 -12.629119 -4.833982 -107.956684 -20.171988 14.200024 5.893458 -0.672176 16.677328 5.219154 -0.622889 -0.626684 0.687934 0.691420 0.558220 -0.682656 127.303969 57.925700 145.789337 43.135552 58.393234 143.416442 -22.350134 -22.711968 132.412827 -45.957665 6.990800 -75.326937 43.264601 -6.328438 -62.100424 -0.687845 0.750162 -0.623248 -0.772526 -0.594785 -0.612783 
0.581971 17.295210 0.020197 87.524574 -40.160969 -31.806582 -113.925274 -43.783759 65.099915 35.558037 36.586543 -38.191841 -118.628900 72.714070 -59.373415 -4.100691 40.784985 -0.458882 4.481911 -0.806718 -9.208668 26.747823 -9.714904 -99.972394 130.042523 -76.763907 -174.225896 109.338135 -48.824313 -93.591366 -14.437574 -16.007634 -7.363599 -0.296365 -0.024222 -10.310400 -48.368202 75.832878 41.163618 -151.961987 79.895297 -156.783477 -171.602861 75.949945 170.704915 -18.048593 8.183916 23.245757 5.100324 2.308682 -4.016038 0.635203 -0.603690 0.612290 76.703448 49.899911 -37.693457 -128.908574 78.387645 -152.422830 -5.459440 -4.552944 -114.269914 -13.892282 16.555605 5.660057 0.574488 17.169142 5.375799 -0.749005 -0.589658 0.670338 0.646671 0.623762 -0.731778 127.397440 57.873774 148.942553 47.999842 64.318427 146.305597 -25.504764 -26.193685 137.185620 -47.707992 11.930097 -64.002172 33.796303 -10.747352 -41.802744 -0.779822 0.748578 -0.624411 -0.648465 -0.561940 -0.667624 
0.456591 17.364273 0.541701 88.196777 -39.232169 -31.498604 -111.350747 -43.125897 64.565430 35.885275 38.645198 -40.243019 -112.968877 72.797113 -55.158138 0.560556 36.273911 -5.521612 3.400134 -0.801831 -0.616954 27.234676 -10.127544 -99.605871 111.924362 -75.682347 -156.493768 105.852719 -48.672832 -90.977738 -9.006347 -20.495687 -9.961785 -0.403250 0.082424 -8.922774 -47.585563 73.098698 43.656593 -157.056038 79.453818 -161.255590 -176.668169 74.798202 166.605290 -19.391143 7.075656 22.646996 2.626703 2.685072 -4.468939 0.649740 -0.639232 0.683981 76.568219 53.185047 -33.637045 -123.517298 81.483424 -144.653688 -4.554766 -4.535353 -119.884524 -13.168556 18.411499 5.004415 5.319733 16.369551 10.955928 -0.641582 -0.685075 0.739299 0.716337 0.661489 -0.700365 129.621913 57.563500 153.076512 55.421556 67.596196 148.984879 -27.325263 -29.113372 142.085067 -41.336935 7.777270 -56.584826 25.945928 -13.473371 -30.922232 -0.727593 0.654751 -0.697959 -0.706876 -0.700328 -0.688004 
